<svg xmlns="http://www.w3.org/2000/svg" width="640" height="400" viewBox="0 0 640 400" font-family="Arial,Helvetica,sans-serif">
<defs><linearGradient id="fondo" x2="1" y2="1"><stop stop-color="#093e34"/><stop offset="1" stop-color="#0c7850"/></linearGradient></defs>
<rect width="640" height="400" fill="url(#fondo)"/>
<path d="M0 340 640 100M0 390 640 150M100 400 640 230" stroke="#37c87d" stroke-width="45" opacity=".22"/>
<rect x="318" y="50" width="265" height="304" rx="5" fill="none" stroke="#a3efb3" stroke-width="3" opacity=".3"/>
<path d="M318 202H583M418 50V110H483V50M418 354V294H483V354" fill="none" stroke="#a3efb3" stroke-width="3" opacity=".3"/>
<circle cx="451" cy="202" r="50" fill="none" stroke="#a3efb3" stroke-width="3" opacity=".3"/>
<text x="36" y="104" font-size="24" letter-spacing="4" fill="#b7ffd2">EA SPORTS</text>
<text x="30" y="178" font-size="68" font-weight="800" fill="white">FC 26</text>
<text x="36" y="215" font-size="17" letter-spacing="2" fill="#b7ffd2">EL JUEGO CONTINUA</text>
<ellipse cx="475" cy="331" rx="105" ry="18" fill="#052f29" opacity=".5"/>
<circle cx="472" cy="245" r="85" fill="#f8ffed"/>
<path d="m473 207 36 25-14 44h-43l-14-43zM410 191l25-20-1 35-26 18-16-5M541 194l12 29-23 15-22-28 8-24M541 293l-26 23-20-25 12-17 26-3M427 314l-22-19 6-28 26 1 16 26" fill="#12362c"/>
<path d="m473 207-3-46m39 71 43-9m-57 53 20 40m-63-40-25 38m11-81-30-9" fill="none" stroke="#749180" stroke-width="2"/>
</svg>
